<svg id="visual" viewBox="0 0 960 300" width="960" height="300" xmlns="http://www.w3.org/2000/svg" xmlns:xlink="http://www.w3.org/1999/xlink" version="1.1"><path d="M0 113L22.8 107C45.7 101 91.3 89 137 87.7C182.7 86.3 228.3 95.7 274 101.2C319.7 106.7 365.3 108.3 411.2 111.2C457 114 503 118 548.8 113.8C594.7 109.7 640.3 97.3 686 92.3C731.7 87.3 777.3 89.7 823 92.2C868.7 94.7 914.3 97.3 937.2 98.7L960 100L960 0L937.2 0C914.3 0 868.7 0 823 0C777.3 0 731.7 0 686 0C640.3 0 594.7 0 548.8 0C503 0 457 0 411.2 0C365.3 0 319.7 0 274 0C228.3 0 182.7 0 137 0C91.3 0 45.7 0 22.8 0L0 0Z" fill="#314a7a"></path><path d="M0 72L22.8 71.5C45.7 71 91.3 70 137 71.8C182.7 73.7 228.3 78.3 274 83.2C319.7 88 365.3 93 411.2 90C457 87 503 76 548.8 70.8C594.7 65.7 640.3 66.3 686 66.8C731.7 67.3 777.3 67.7 823 68.3C868.7 69 914.3 70 937.2 70.5L960 71L960 0L937.2 0C914.3 0 868.7 0 823 0C777.3 0 731.7 0 686 0C640.3 0 594.7 0 548.8 0C503 0 457 0 411.2 0C365.3 0 319.7 0 274 0C228.3 0 182.7 0 137 0C91.3 0 45.7 0 22.8 0L0 0Z" fill="#334d7f"></path><path d="M0 61L22.8 59.2C45.7 57.3 91.3 53.7 137 53C182.7 52.3 228.3 54.7 274 53.8C319.7 53 365.3 49 411.2 50.8C457 52.7 503 60.3 548.8 62C594.7 63.7 640.3 59.3 686 57.7C731.7 56 777.3 57 823 61C868.7 65 914.3 72 937.2 75.5L960 79L960 0L937.2 0C914.3 0 868.7 0 823 0C777.3 0 731.7 0 686 0C640.3 0 594.7 0 548.8 0C503 0 457 0 411.2 0C365.3 0 319.7 0 274 0C228.3 0 182.7 0 137 0C91.3 0 45.7 0 22.8 0L0 0Z" fill="#355084"></path><path d="M0 45L22.8 44.3C45.7 43.7 91.3 42.3 137 42.2C182.7 42 228.3 43 274 45C319.7 47 365.3 50 411.2 50C457 50 503 47 548.8 44.8C594.7 42.7 640.3 41.3 686 43.7C731.7 46 777.3 52 823 50.2C868.7 48.3 914.3 38.7 937.2 33.8L960 29L960 0L937.2 0C914.3 0 868.7 0 823 0C777.3 0 731.7 0 686 0C640.3 0 594.7 0 548.8 0C503 0 457 0 411.2 0C365.3 0 319.7 0 274 0C228.3 0 182.7 0 137 0C91.3 0 45.7 0 22.8 0L0 0Z" fill="#375389"></path><path d="M0 12L22.8 14.3C45.7 16.7 91.3 21.3 137 23.8C182.7 26.3 228.3 26.7 274 26.3C319.7 26 365.3 25 411.2 23C457 21 503 18 548.8 19.2C594.7 20.3 640.3 25.7 686 26.3C731.7 27 777.3 23 823 22.7C868.7 22.3 914.3 25.7 937.2 27.3L960 29L960 0L937.2 0C914.3 0 868.7 0 823 0C777.3 0 731.7 0 686 0C640.3 0 594.7 0 548.8 0C503 0 457 0 411.2 0C365.3 0 319.7 0 274 0C228.3 0 182.7 0 137 0C91.3 0 45.7 0 22.8 0L0 0Z" fill="#3a578e"></path></svg>