<svg id="visual" viewBox="0 0 960 300" width="960" height="300" xmlns="http://www.w3.org/2000/svg" xmlns:xlink="http://www.w3.org/1999/xlink" version="1.1"><path d="M0 185L22.8 191C45.7 197 91.3 209 137 210.3C182.7 211.7 228.3 202.3 274 196.8C319.7 191.3 365.3 189.7 411.2 186.8C457 184 503 180 548.8 184.2C594.7 188.3 640.3 200.7 686 205.7C731.7 210.7 777.3 208.3 823 205.8C868.7 203.3 914.3 200.7 937.2 199.3L960 198L960 301L937.2 301C914.3 301 868.7 301 823 301C777.3 301 731.7 301 686 301C640.3 301 594.7 301 548.8 301C503 301 457 301 411.2 301C365.3 301 319.7 301 274 301C228.3 301 182.7 301 137 301C91.3 301 45.7 301 22.8 301L0 301Z" fill="#314a7a"></path><path d="M0 226L22.8 226.5C45.7 227 91.3 228 137 226.2C182.7 224.3 228.3 219.7 274 214.8C319.7 210 365.3 205 411.2 208C457 211 503 222 548.8 227.2C594.7 232.3 640.3 231.7 686 231.2C731.7 230.7 777.3 230.3 823 229.7C868.7 229 914.3 228 937.2 227.5L960 227L960 301L937.2 301C914.3 301 868.7 301 823 301C777.3 301 731.7 301 686 301C640.3 301 594.7 301 548.8 301C503 301 457 301 411.2 301C365.3 301 319.7 301 274 301C228.3 301 182.7 301 137 301C91.3 301 45.7 301 22.8 301L0 301Z" fill="#1f6997"></path><path d="M0 237L22.8 238.8C45.7 240.7 91.3 244.3 137 245C182.7 245.7 228.3 243.3 274 244.2C319.7 245 365.3 249 411.2 247.2C457 245.3 503 237.7 548.8 236C594.7 234.3 640.3 238.7 686 240.3C731.7 242 777.3 241 823 237C868.7 233 914.3 226 937.2 222.5L960 219L960 301L937.2 301C914.3 301 868.7 301 823 301C777.3 301 731.7 301 686 301C640.3 301 594.7 301 548.8 301C503 301 457 301 411.2 301C365.3 301 319.7 301 274 301C228.3 301 182.7 301 137 301C91.3 301 45.7 301 22.8 301L0 301Z" fill="#0088ad"></path><path d="M0 253L22.8 253.7C45.7 254.3 91.3 255.7 137 255.8C182.7 256 228.3 255 274 253C319.7 251 365.3 248 411.2 248C457 248 503 251 548.8 253.2C594.7 255.3 640.3 256.7 686 254.3C731.7 252 777.3 246 823 247.8C868.7 249.7 914.3 259.3 937.2 264.2L960 269L960 301L937.2 301C914.3 301 868.7 301 823 301C777.3 301 731.7 301 686 301C640.3 301 594.7 301 548.8 301C503 301 457 301 411.2 301C365.3 301 319.7 301 274 301C228.3 301 182.7 301 137 301C91.3 301 45.7 301 22.8 301L0 301Z" fill="#00a7b6"></path><path d="M0 286L22.8 283.7C45.7 281.3 91.3 276.7 137 274.2C182.7 271.7 228.3 271.3 274 271.7C319.7 272 365.3 273 411.2 275C457 277 503 280 548.8 278.8C594.7 277.7 640.3 272.3 686 271.7C731.7 271 777.3 275 823 275.3C868.7 275.7 914.3 272.3 937.2 270.7L960 269L960 301L937.2 301C914.3 301 868.7 301 823 301C777.3 301 731.7 301 686 301C640.3 301 594.7 301 548.8 301C503 301 457 301 411.2 301C365.3 301 319.7 301 274 301C228.3 301 182.7 301 137 301C91.3 301 45.7 301 22.8 301L0 301Z" fill="#02c4ab"></path></svg>