<svg id="visual" viewBox="0 0 900 300" width="900" height="300" xmlns="http://www.w3.org/2000/svg" xmlns:xlink="http://www.w3.org/1999/xlink" version="1.1"><path d="M0 178L21.5 181.3C43 184.7 86 191.3 128.8 197.7C171.7 204 214.3 210 257.2 209.7C300 209.3 343 202.7 385.8 195.8C428.7 189 471.3 182 514.2 180.5C557 179 600 183 642.8 185.8C685.7 188.7 728.3 190.3 771.2 195C814 199.7 857 207.3 878.5 211.2L900 215L900 301L878.5 301C857 301 814 301 771.2 301C728.3 301 685.7 301 642.8 301C600 301 557 301 514.2 301C471.3 301 428.7 301 385.8 301C343 301 300 301 257.2 301C214.3 301 171.7 301 128.8 301C86 301 43 301 21.5 301L0 301Z" fill="#3c2e55"></path><path d="M0 231L21.5 227.2C43 223.3 86 215.7 128.8 210.8C171.7 206 214.3 204 257.2 205C300 206 343 210 385.8 212.3C428.7 214.7 471.3 215.3 514.2 218.3C557 221.3 600 226.7 642.8 229.7C685.7 232.7 728.3 233.3 771.2 229.8C814 226.3 857 218.7 878.5 214.8L900 211L900 301L878.5 301C857 301 814 301 771.2 301C728.3 301 685.7 301 642.8 301C600 301 557 301 514.2 301C471.3 301 428.7 301 385.8 301C343 301 300 301 257.2 301C214.3 301 171.7 301 128.8 301C86 301 43 301 21.5 301L0 301Z" fill="#3e3863"></path><path d="M0 240L21.5 236.8C43 233.7 86 227.3 128.8 228.5C171.7 229.7 214.3 238.3 257.2 238.8C300 239.3 343 231.7 385.8 231.5C428.7 231.3 471.3 238.7 514.2 242.2C557 245.7 600 245.3 642.8 245.8C685.7 246.3 728.3 247.7 771.2 246C814 244.3 857 239.7 878.5 237.3L900 235L900 301L878.5 301C857 301 814 301 771.2 301C728.3 301 685.7 301 642.8 301C600 301 557 301 514.2 301C471.3 301 428.7 301 385.8 301C343 301 300 301 257.2 301C214.3 301 171.7 301 128.8 301C86 301 43 301 21.5 301L0 301Z" fill="#3f4271"></path><path d="M0 250L21.5 250.2C43 250.3 86 250.7 128.8 250.7C171.7 250.7 214.3 250.3 257.2 252C300 253.7 343 257.3 385.8 258.7C428.7 260 471.3 259 514.2 259.5C557 260 600 262 642.8 260.8C685.7 259.7 728.3 255.3 771.2 253.8C814 252.3 857 253.7 878.5 254.3L900 255L900 301L878.5 301C857 301 814 301 771.2 301C728.3 301 685.7 301 642.8 301C600 301 557 301 514.2 301C471.3 301 428.7 301 385.8 301C343 301 300 301 257.2 301C214.3 301 171.7 301 128.8 301C86 301 43 301 21.5 301L0 301Z" fill="#3e4c80"></path><path d="M0 273L21.5 274.5C43 276 86 279 128.8 277.2C171.7 275.3 214.3 268.7 257.2 268.7C300 268.7 343 275.3 385.8 279C428.7 282.7 471.3 283.3 514.2 280.5C557 277.7 600 271.3 642.8 267.7C685.7 264 728.3 263 771.2 265.3C814 267.7 857 273.3 878.5 276.2L900 279L900 301L878.5 301C857 301 814 301 771.2 301C728.3 301 685.7 301 642.8 301C600 301 557 301 514.2 301C471.3 301 428.7 301 385.8 301C343 301 300 301 257.2 301C214.3 301 171.7 301 128.8 301C86 301 43 301 21.5 301L0 301Z" fill="#3a578e"></path></svg>