<svg id="visual" viewBox="0 0 900 600" width="900" height="600" xmlns="http://www.w3.org/2000/svg" xmlns:xlink="http://www.w3.org/1999/xlink" version="1.1"><rect x="0" y="0" width="900" height="600" fill="#001220"></rect><path d="M0 354L21.5 355.8C43 357.7 86 361.3 128.8 364.7C171.7 368 214.3 371 257.2 384.7C300 398.3 343 422.7 385.8 422.5C428.7 422.3 471.3 397.7 514.2 388.5C557 379.3 600 385.7 642.8 386.2C685.7 386.7 728.3 381.3 771.2 378.5C814 375.7 857 375.3 878.5 375.2L900 375L900 601L878.5 601C857 601 814 601 771.2 601C728.3 601 685.7 601 642.8 601C600 601 557 601 514.2 601C471.3 601 428.7 601 385.8 601C343 601 300 601 257.2 601C214.3 601 171.7 601 128.8 601C86 601 43 601 21.5 601L0 601Z" fill="#914c7b"></path><path d="M0 412L21.5 418.2C43 424.3 86 436.7 128.8 442.7C171.7 448.7 214.3 448.3 257.2 449.8C300 451.3 343 454.7 385.8 445.8C428.7 437 471.3 416 514.2 414.7C557 413.3 600 431.7 642.8 439.3C685.7 447 728.3 444 771.2 442.8C814 441.7 857 442.3 878.5 442.7L900 443L900 601L878.5 601C857 601 814 601 771.2 601C728.3 601 685.7 601 642.8 601C600 601 557 601 514.2 601C471.3 601 428.7 601 385.8 601C343 601 300 601 257.2 601C214.3 601 171.7 601 128.8 601C86 601 43 601 21.5 601L0 601Z" fill="#b1567c"></path><path d="M0 485L21.5 482.3C43 479.7 86 474.3 128.8 466.3C171.7 458.3 214.3 447.7 257.2 443.3C300 439 343 441 385.8 447.8C428.7 454.7 471.3 466.3 514.2 467.3C557 468.3 600 458.7 642.8 463.5C685.7 468.3 728.3 487.7 771.2 493.2C814 498.7 857 490.3 878.5 486.2L900 482L900 601L878.5 601C857 601 814 601 771.2 601C728.3 601 685.7 601 642.8 601C600 601 557 601 514.2 601C471.3 601 428.7 601 385.8 601C343 601 300 601 257.2 601C214.3 601 171.7 601 128.8 601C86 601 43 601 21.5 601L0 601Z" fill="#ce6379"></path><path d="M0 532L21.5 527.7C43 523.3 86 514.7 128.8 512.7C171.7 510.7 214.3 515.3 257.2 514.7C300 514 343 508 385.8 508.2C428.7 508.3 471.3 514.7 514.2 511.5C557 508.3 600 495.7 642.8 490.2C685.7 484.7 728.3 486.3 771.2 495.5C814 504.7 857 521.3 878.5 529.7L900 538L900 601L878.5 601C857 601 814 601 771.2 601C728.3 601 685.7 601 642.8 601C600 601 557 601 514.2 601C471.3 601 428.7 601 385.8 601C343 601 300 601 257.2 601C214.3 601 171.7 601 128.8 601C86 601 43 601 21.5 601L0 601Z" fill="#e67473"></path><path d="M0 529L21.5 528.3C43 527.7 86 526.3 128.8 525.8C171.7 525.3 214.3 525.7 257.2 531.3C300 537 343 548 385.8 554.8C428.7 561.7 471.3 564.3 514.2 558.7C557 553 600 539 642.8 535.3C685.7 531.7 728.3 538.3 771.2 544.3C814 550.3 857 555.7 878.5 558.3L900 561L900 601L878.5 601C857 601 814 601 771.2 601C728.3 601 685.7 601 642.8 601C600 601 557 601 514.2 601C471.3 601 428.7 601 385.8 601C343 601 300 601 257.2 601C214.3 601 171.7 601 128.8 601C86 601 43 601 21.5 601L0 601Z" fill="#f88a6b"></path></svg>